<svg xmlns="http://www.w3.org/2000/svg" viewBox="0 0 128 128" width="128" height="128">
  <path fill="#4285F4" d="M64 8L16 32v40c0 40 28 58 48 64 20-6 48-24 48-64V32L64 8z"/>
  <path fill="#FFFFFF" d="M64 20L24 40v30c0 32 20 42 40 44 20-2 40-12 40-44V40L64 20z"/>
  <circle fill="#FF0000" cx="64" cy="64" r="26"/>
  <circle fill="#FFFFFF" cx="64" cy="64" r="18"/>
  <circle fill="#34A853" cx="64" cy="64" r="10"/>
  <line stroke="#FFFFFF" stroke-width="4" x1="34" y1="64" x2="49" y2="64"/>
  <line stroke="#FFFFFF" stroke-width="4" x1="79" y1="64" x2="94" y2="64"/>
  <line stroke="#FFFFFF" stroke-width="4" x1="64" y1="34" x2="64" y2="49"/>
  <line stroke="#FFFFFF" stroke-width="4" x1="64" y1="79" x2="64" y2="94"/>
</svg> 